<?xml version="1.0" encoding="UTF-8"?>
<svg version="1.1" xmlns="http://www.w3.org/2000/svg" width="360" height="360">
<path d="M0 0 C118.8 0 237.6 0 360 0 C360 118.8 360 237.6 360 360 C241.2 360 122.4 360 0 360 C0 241.2 0 122.4 0 0 Z " fill="#F5F5F3" transform="translate(0,0)"/>
<path d="M0 0 C0 12.21 0 24.42 0 37 C1.98 37.33 3.96 37.66 6 38 C21.3011738 44.54147815 34.66967364 57.0518835 42 72 C42 72.66 42 73.32 42 74 C35.07 77.3 28.14 80.6 21 84 C18.27810791 81.27810791 16.31264831 79.17492467 14.1875 76.125 C7.39852802 66.99967357 -2.49781443 61.0737038 -13.5625 58.375 C-29.51293547 56.63495249 -42.51816096 59.84745852 -55.28515625 69.77734375 C-63.84454597 77.57809778 -69.56367263 88.767957 -70.17578125 100.31640625 C-70.30905126 106.93080703 -70.09276438 112.72170687 -68 119 C-67.63261719 120.16402344 -67.63261719 120.16402344 -67.2578125 121.3515625 C-63.24040669 132.8349437 -54.84498396 142.19127513 -43.90234375 147.50390625 C-30.14018664 153.3733074 -18.09766232 153.47186893 -4 148 C-3.24976563 147.71125 -2.49953125 147.4225 -1.7265625 147.125 C8.37265627 142.65419959 14.75521809 134.42973743 20 125 C20.34546875 123.9584375 20.6909375 122.916875 21.046875 121.84375 C24.11809599 117.37205224 28.24761042 117.13662011 33.375 116.125 C34.32117188 115.91359375 35.26734375 115.7021875 36.2421875 115.484375 C40.58265313 114.54556642 44.5450236 113.88770637 49 114 C44.84477492 135.84641064 35.54185663 153.3281048 16.81640625 166.2734375 C5.8438914 173 5.8438914 173 0 173 C0 178.28 0 183.56 0 189 C-2.289375 190.155 -4.57875 191.31 -6.9375 192.5 C-7.65929443 192.86544922 -8.38108887 193.23089844 -9.12475586 193.60742188 C-13.88888889 196 -13.88888889 196 -15 196 C-15 189.73 -15 183.46 -15 177 C-19.95 177 -24.9 177 -30 177 C-30 185.91 -30 194.82 -30 204 C-32.26875 204.99 -34.5375 205.98 -36.875 207 C-37.58769043 207.31324219 -38.30038086 207.62648438 -39.03466797 207.94921875 C-43.77777778 210 -43.77777778 210 -46 210 C-46 197.79 -46 185.58 -46 173 C-47.65 172.67 -49.3 172.34 -51 172 C-69.01714458 163.97113982 -82.09174765 151.13718133 -89.8203125 133.08203125 C-96.83241412 114.76233528 -97.77219948 95.21673001 -90 77 C-86.78609589 70.06382626 -82.80203013 63.92968364 -78 58 C-77.56300781 57.41734375 -77.12601563 56.8346875 -76.67578125 56.234375 C-69.6934196 47.3513705 -59.35344396 41.21806976 -49 37 C-48.01 37 -47.02 37 -46 37 C-46 31.72 -46 26.44 -46 21 C-43.73125 19.845 -41.4625 18.69 -39.125 17.5 C-38.41230957 17.13455078 -37.69961914 16.76910156 -36.96533203 16.39257812 C-32.22222222 14 -32.22222222 14 -30 14 C-30 20.27 -30 26.54 -30 33 C-25.05 33 -20.1 33 -15 33 C-15 24.09 -15 15.18 -15 6 C-2.25 0 -2.25 0 0 0 Z " fill="#161314" transform="translate(203,75)"/>
<path d="M0 0 C0.70125 0.721875 1.4025 1.44375 2.125 2.1875 C4.92770745 4.99823813 7.92262792 7.49516226 11 10 C10.34 10.66 9.68 11.32 9 12 C7 11.875 7 11.875 5 11 C4.71125 10.34 4.4225 9.68 4.125 9 C3.75375 8.34 3.3825 7.68 3 7 C-0.05908413 6.18415432 -0.05908413 6.18415432 -3 6 C-2.01 4.02 -1.02 2.04 0 0 Z " fill="#1B1917" transform="translate(141,208)"/>
<path d="M0 0 C1.1484375 1.734375 1.1484375 1.734375 2 4 C1.1015625 6.140625 1.1015625 6.140625 -0.375 8.25 C-0.85710937 8.95640625 -1.33921875 9.6628125 -1.8359375 10.390625 C-2.22007812 10.92171875 -2.60421875 11.4528125 -3 12 C-3.66 11.67 -4.32 11.34 -5 11 C-4.67 8.69 -4.34 6.38 -4 4 C-3.34 4 -2.68 4 -2 4 C-1.34 2.68 -0.68 1.36 0 0 Z " fill="#EBEAE8" transform="translate(222,196)"/>
<path d="M0 0 C0.99 0 1.98 0 3 0 C3 3.96 3 7.92 3 12 C2.01 12 1.02 12 0 12 C0 8.04 0 4.08 0 0 Z " fill="#100C0D" transform="translate(200,252)"/>
<path d="M0 0 C0.66 0.99 1.32 1.98 2 3 C0.6875 6.5 0.6875 6.5 -1 10 C-1.33 10.99 -1.66 11.98 -2 13 C-2.99 13 -3.98 13 -5 13 C-4.731875 12.34 -4.46375 11.68 -4.1875 11 C-2.74294953 7.35060933 -1.37128822 3.67754567 0 0 Z " fill="#D8D6D7" transform="translate(248,203)"/>
<path d="M0 0 C4.95 1.98 4.95 1.98 10 4 C9.01 4.99 8.02 5.98 7 7 C1.125 3.375 1.125 3.375 0 0 Z " fill="#1F1C1D" transform="translate(133,233)"/>
<path d="M0 0 C1.98 0 3.96 0 6 0 C6 0.66 6 1.32 6 2 C6.66 2 7.32 2 8 2 C7 4 7 4 5.125 4.8125 C3 5 3 5 1.25 3.6875 C0 2 0 2 0 0 Z " fill="#0E0D0D" transform="translate(125,225)"/>
<path d="M0 0 C1.98 1.65 3.96 3.3 6 5 C5.34 5.66 4.68 6.32 4 7 C0.125 4.375 0.125 4.375 -1 1 C-0.67 0.67 -0.34 0.34 0 0 Z " fill="#E2E2E1" transform="translate(122,224)"/>
<path d="M0 0 C0.66 1.32 1.32 2.64 2 4 C0.68 4.99 -0.64 5.98 -2 7 C-2.6875 5.1875 -2.6875 5.1875 -3 3 C-1.5625 1.25 -1.5625 1.25 0 0 Z " fill="#ECEAE8" transform="translate(213,209)"/>
<path d="M0 0 C0.33 0 0.66 0 1 0 C1.33 2.97 1.66 5.94 2 9 C2.99 9 3.98 9 5 9 C4.67 9.66 4.34 10.32 4 11 C1.525 10.01 1.525 10.01 -1 9 C-0.67 6.03 -0.34 3.06 0 0 Z " fill="#EAE8E7" transform="translate(205,103)"/>
<path d="M0 0 C0.66 0.66 1.32 1.32 2 2 C1.625 4.125 1.625 4.125 1 6 C-0.32 5.34 -1.64 4.68 -3 4 C-2.01 2.68 -1.02 1.36 0 0 Z " fill="#E9E7E6" transform="translate(237,224)"/>
<path d="M0 0 C0.99 0.99 1.98 1.98 3 3 C2.34 4.32 1.68 5.64 1 7 C-0.32 6.34 -1.64 5.68 -3 5 C-2.01 3.35 -1.02 1.7 0 0 Z " fill="#211F1E" transform="translate(141,208)"/>
<path d="M0 0 C1.38125018 2.76250036 1.19079306 4.94731099 1 8 C0.34 8.66 -0.32 9.32 -1 10 C-2.125 8.3125 -2.125 8.3125 -3 6 C-1.7 1.7 -1.7 1.7 0 0 Z " fill="#1E1C1C" transform="translate(221,145)"/>
<path d="M0 0 C1.32 0 2.64 0 4 0 C4.33 1.32 4.66 2.64 5 4 C3.68 4.33 2.36 4.66 1 5 C1 4.01 1 3.02 1 2 C0.67 1.67 0.34 1.34 0 1 C0 0.67 0 0.34 0 0 Z " fill="#1D1B19" transform="translate(240,145)"/>
</svg>
